<?xml version="1.0" encoding="UTF-8" standalone="no"?>
<!-- Created with Inkscape (http://www.inkscape.org/) -->

<svg
   width="50"
   height="50"
   viewBox="0 0 13.229166 13.229167"
   version="1.1"
   id="svg5"
   xmlns="http://www.w3.org/2000/svg"
   xmlns:svg="http://www.w3.org/2000/svg">
  <defs
     id="defs2" />
  <g
     id="layer1">
    <path
       id="rect788"
       style="fill:#ffbb00;fill-opacity:1;stroke-width:0.3;stroke-linecap:round;stroke-linejoin:round;paint-order:markers fill stroke"
       d="M 2.4520467,0 C 1.0938647,0 6.6666667e-7,1.0933471 6.6666667e-7,2.4515299 v 8.3261071 c 0,1.358182 1.09386403333333,2.45153 2.45204603333333,2.45153 h 8.3255903 c 1.358184,0 2.45153,-1.093348 2.45153,-2.45153 V 2.4515299 C 13.229167,1.0933471 12.135821,0 10.777637,0 Z m 0.51108,1.55236 h 7.3034313 c 0.781342,0 1.410249,0.6294244 1.410249,1.4107666 V 10.26604 c 0,0.781342 -0.628907,1.410767 -1.410249,1.410767 H 2.9631267 c -0.781342,0 -1.41025,-0.629425 -1.41025,-1.410767 V 2.9631266 c 0,-0.7813422 0.628908,-1.4107666 1.41025,-1.4107666 z m 3.651457,2.8318685 c -0.159635,-5e-7 -0.318997,0.061131 -0.441317,0.1834514 l -3.210656,3.2106567 c -0.244641,0.2446401 -0.24464,0.6385106 0,0.8831503 0.24464,0.24464 0.639027,0.24464 0.883667,0 l 2.768306,-2.7688233 2.768823,2.7688233 c 0.244641,0.24464 0.6385113,0.244639 0.8831513,0 0.24464,-0.2446403 0.24464,-0.6385102 0,-0.8831503 L 7.0564177,4.5676799 C 6.9340977,4.4453603 6.7742177,4.384228 6.6145837,4.3842285 Z" />
  </g>
</svg>
