<?xml version="1.0" encoding="UTF-8" standalone="no"?>
<!-- Created with Inkscape (http://www.inkscape.org/) -->

<svg
   width="100mm"
   height="100mm"
   viewBox="0 0 100 100"
   version="1.1"
   id="svg5"
   inkscape:version="1.1.1 (3bf5ae0d25, 2021-09-20)"
   sodipodi:docname="logobranca.svg"
   xmlns:inkscape="http://www.inkscape.org/namespaces/inkscape"
   xmlns:sodipodi="http://sodipodi.sourceforge.net/DTD/sodipodi-0.dtd"
   xmlns="http://www.w3.org/2000/svg"
   xmlns:svg="http://www.w3.org/2000/svg">
  <sodipodi:namedview
     id="namedview7"
     pagecolor="#4c4c4c"
     bordercolor="#666666"
     borderopacity="1.0"
     inkscape:pageshadow="2"
     inkscape:pageopacity="0.96078431"
     inkscape:pagecheckerboard="true"
     inkscape:document-units="mm"
     showgrid="false"
     width="100mm"
     inkscape:zoom="0.89067215"
     inkscape:cx="495.69306"
     inkscape:cy="228.47913"
     inkscape:window-width="1366"
     inkscape:window-height="705"
     inkscape:window-x="-8"
     inkscape:window-y="-8"
     inkscape:window-maximized="1"
     inkscape:current-layer="layer1" />
  <defs
     id="defs2">
    <rect
       x="1328.6982"
       y="406.21759"
       width="675.21783"
       height="336.92963"
       id="rect11245" />
    <rect
       x="1328.6982"
       y="406.21759"
       width="675.21783"
       height="336.92963"
       id="rect24255" />
    <rect
       x="1328.6982"
       y="406.21759"
       width="675.21783"
       height="336.92963"
       id="rect26871" />
    <rect
       x="1328.6982"
       y="406.21759"
       width="675.21783"
       height="336.92963"
       id="rect26873" />
    <clipPath
       clipPathUnits="userSpaceOnUse"
       id="clipPath26133">
      <path
         id="path26135"
         style="fill:#ffe6d5;stroke-width:1;stroke-linecap:round;stroke-linejoin:round;paint-order:markers stroke fill"
         d="M -213.18329,299.51315 H 83.816724 v 78.42012 H -213.18329 Z" />
    </clipPath>
    <clipPath
       clipPathUnits="userSpaceOnUse"
       id="clipPath9041">
      <rect
         style="opacity:0.311947;fill:#008080;fill-opacity:1;stroke:none;stroke-width:2;stroke-linecap:round;stroke-linejoin:round;paint-order:markers stroke fill"
         id="rect9043"
         width="719.18512"
         height="669.04785"
         x="-1932.839"
         y="-1354.2963" />
    </clipPath>
    <filter
       height="1.1431116"
       width="1.0853842"
       y="-0.071555786"
       x="-0.042692166"
       style="color-interpolation-filters:sRGB"
       inkscape:label="Blur"
       id="filter9825">
      <feGaussianBlur
         stdDeviation="21.1559 19.9476"
         result="blur"
         id="feGaussianBlur9819" />
      <feColorMatrix
         values="1 0 0 0 0 0 1 0 0 0 0 0 1 0 0 0 0 0 50 0 "
         result="colormatrix"
         id="feColorMatrix9821" />
      <feComposite
         in="colormatrix"
         in2="SourceGraphic"
         operator="in"
         id="feComposite9823" />
    </filter>
    <clipPath
       clipPathUnits="userSpaceOnUse"
       id="clipPath9925">
      <rect
         style="opacity:0.311947;fill:#008080;fill-opacity:1;stroke:none;stroke-width:2;stroke-linecap:round;stroke-linejoin:round;paint-order:markers stroke fill"
         id="rect9927"
         width="1189.3085"
         height="669.04779"
         x="-2167.9006"
         y="-288.11829" />
    </clipPath>
    <rect
       x="1328.6983"
       y="406.21759"
       width="675.21786"
       height="336.92964"
       id="rect11245-3" />
    <rect
       x="1328.6983"
       y="406.21759"
       width="675.21786"
       height="336.92964"
       id="rect24255-4" />
    <rect
       x="1328.6983"
       y="406.21759"
       width="675.21786"
       height="336.92964"
       id="rect26871-2" />
    <rect
       x="1328.6983"
       y="406.21759"
       width="675.21786"
       height="336.92964"
       id="rect26873-3" />
    <clipPath
       clipPathUnits="userSpaceOnUse"
       id="clipPath26133-2">
      <path
         id="path26135-3"
         style="fill:#ffe6d5;stroke-width:1;stroke-linecap:round;stroke-linejoin:round;paint-order:markers stroke fill"
         d="M -213.18329,299.51315 H 83.816724 v 78.42012 H -213.18329 Z" />
    </clipPath>
    <clipPath
       clipPathUnits="userSpaceOnUse"
       id="clipPath9041-0">
      <rect
         style="opacity:0.311947;fill:#008080;fill-opacity:1;stroke:none;stroke-width:2;stroke-linecap:round;stroke-linejoin:round;paint-order:markers stroke fill"
         id="rect9043-2"
         width="719.18512"
         height="669.04785"
         x="-1932.839"
         y="-1354.2963" />
    </clipPath>
    <filter
       height="1.1431116"
       width="1.0853843"
       y="-0.071555783"
       x="-0.042692167"
       style="color-interpolation-filters:sRGB;"
       inkscape:label="Blur"
       id="filter9825-9">
      <feGaussianBlur
         stdDeviation="21.1559 19.9476"
         result="blur"
         id="feGaussianBlur9819-9" />
      <feColorMatrix
         values="1 0 0 0 0 0 1 0 0 0 0 0 1 0 0 0 0 0 50 0 "
         result="colormatrix"
         id="feColorMatrix9821-3" />
      <feComposite
         in="colormatrix"
         in2="SourceGraphic"
         operator="in"
         id="feComposite9823-0" />
    </filter>
    <clipPath
       clipPathUnits="userSpaceOnUse"
       id="clipPath9925-5">
      <rect
         style="opacity:0.311947;fill:#008080;fill-opacity:1;stroke:none;stroke-width:2;stroke-linecap:round;stroke-linejoin:round;paint-order:markers stroke fill"
         id="rect9927-6"
         width="1189.3085"
         height="669.04779"
         x="-2167.9006"
         y="-288.11829" />
    </clipPath>
    <clipPath
       clipPathUnits="userSpaceOnUse"
       id="clipPath5212">
      <rect
         style="fill:#800000;fill-opacity:0.873585;stroke:none;stroke-width:2.565;stroke-linecap:round;stroke-linejoin:round;paint-order:stroke fill markers"
         id="rect5214"
         width="73.076828"
         height="72.77977"
         x="581.6441"
         y="92.088692" />
    </clipPath>
  </defs>
  <g
     inkscape:groupmode="layer"
     id="layer2"
     inkscape:label="Camada 2" />
  <g
     inkscape:label="Camada 1"
     inkscape:groupmode="layer"
     id="layer1">
    <path
       style="color:#000000;fill:#f2f2f2;stroke-linecap:round;stroke-linejoin:round;-inkscape-stroke:none;paint-order:markers stroke fill"
       d="M 49.96875,0 C 48.336889,0.03089684 46.706962,0.14176288 45.085937,0.33203125 A 1.6814831,1.6814831 0 0 0 43.601562,2.0019531 V 18.353516 a 1.6814831,1.6814831 0 0 0 1.941407,1.662109 c 1.399588,-0.219916 2.814084,-0.325148 4.230468,-0.347656 V 80.333984 C 44.07149,80.258361 38.502236,78.593091 33.708984,75.498047 a 1.6814831,1.6814831 0 0 0 -2.59375,1.412109 v 18.111328 a 1.6814831,1.6814831 0 0 0 1.070313,1.566407 C 37.862023,98.799983 43.896162,99.956947 49.988281,100 A 1.6814831,1.6814831 0 0 0 50,100 c 6.404776,-0.0034 12.750246,-1.237488 18.689453,-3.634766 a 1.6814831,1.6814831 0 0 0 1.052734,-1.558593 v -3.746094 -14.75 V 23.689453 6.953125 5.1933594 A 1.6814831,1.6814831 0 0 0 68.689453,3.6347656 C 62.750248,1.2374795 56.404777,0.00337333 50,0 a 1.6814831,1.6814831 0 0 0 -0.05273,0.02148438 z m 0.04492,3.3652344 c 5.60188,0.00462 11.128024,1.1047925 16.365234,3.0761718 v 0.5117188 16.736328 52.621094 14.75 2.498047 C 61.139201,95.530905 55.610452,96.633069 50.005859,96.636719 44.698277,96.598544 39.463653,95.56995 34.478516,93.763672 V 79.748047 c 4.781075,2.521913 10.077497,3.937337 15.511718,3.966797 a 1.6814831,1.6814831 0 0 0 0.109375,-0.0039 c 0.511058,-0.03011 1.020141,-0.07165 1.529297,-0.125 a 1.6814831,1.6814831 0 0 0 1.50586,-1.671875 V 18.085937 a 1.6814831,1.6814831 0 0 0 -1.50586,-1.671875 c -0.509156,-0.05335 -1.018239,-0.09489 -1.529297,-0.125 a 1.6814831,1.6814831 0 0 0 -0.113281,-0.0039 c -1.012717,0.008 -2.016205,0.14901 -3.023437,0.248047 V 3.5703125 c 1.016167,-0.086496 2.030865,-0.1853806 3.050781,-0.2050781 z M 74.408203,6.3789062 A 1.6814831,1.6814831 0 0 0 71.90625,7.8457031 V 28.458984 a 1.6814831,1.6814831 0 0 0 0.443359,1.136719 C 77.46547,35.163177 80.318366,42.439274 80.351562,50 c -0.03319,7.560733 -2.886088,14.836818 -8.001953,20.404297 a 1.6814831,1.6814831 0 0 0 -0.443359,1.136719 v 20.613281 a 1.6814831,1.6814831 0 0 0 2.501953,1.466797 C 90.202807,84.786275 99.994062,68.097559 100,50 99.994053,31.902451 90.202799,15.21372 74.408203,6.3789062 Z M 25.591797,6.5 C 9.8362979,15.31285 0.05129501,31.94346 0,49.996094 a 1.6814831,1.6814831 0 0 0 0,0.0078 C 0.05129762,68.056537 9.8363001,84.687151 25.591797,93.5 A 1.6814831,1.6814831 0 0 0 28.09375,92.033203 V 71.541016 A 1.6814831,1.6814831 0 0 0 27.650391,70.404297 C 22.534527,64.836817 19.681628,57.560732 19.648437,50 c 0.0332,-7.560725 2.886095,-14.836823 8.001954,-20.404297 A 1.6814831,1.6814831 0 0 0 28.09375,28.458984 V 7.9667969 A 1.6814831,1.6814831 0 0 0 25.591797,6.5 Z m 49.677734,4.443359 C 88.490222,19.494923 96.6315,34.118804 96.636719,50 96.631508,65.881205 88.490229,80.505072 75.269531,89.056641 V 72.097656 c 5.374008,-6.111259 8.411619,-13.935387 8.445313,-22.089844 a 1.6814831,1.6814831 0 0 0 0,-0.01563 C 83.681145,41.837738 80.643535,34.013598 75.269531,27.902344 Z M 24.730469,11.0625 v 16.839844 c -5.374002,6.111253 -8.411614,13.935396 -8.445313,22.089843 a 1.6814831,1.6814831 0 0 0 0,0.01563 c 0.03369,8.154456 3.071306,15.978585 8.445313,22.089844 V 88.9375 C 11.545874,80.409821 3.4109403,65.840553 3.3632813,50.003906 V 50 c -3.9e-6,-0.0013 3.7e-6,-0.0026 0,-0.0039 C 3.4109372,34.159444 11.545872,19.59018 24.730469,11.0625 Z"
       id="path4626" />
  </g>
</svg>
